PathFileType	4	(X/Y/Z)	OpenSim_Sub06_EMGBaseline_Accel.trc
DataRate	CameraRate	NumFrames	NumMarkers	Units	OrigDataRate	OrigDataStartFrame	OrigNumFrames
100	100	13	8	m	100	6203	8270
Frame#	Time	torso_imu_offset_imu	pelvis_imu_offset_imu	tibia_r_imu_offset_imu	femur_r_imu_offset_imu	tibia_l_imu_offset_imu	femur_l_imu_offset_imu	toes_r_imu_offset_imu	toes_l_imu_offset_imu
				X1	Y1	Z1	X2	Y2	Z2	X3	Y3	Z3	X4	Y4	Z4	X5	Y5	Z5	X6	Y6	Z6	X7	Y7	Z7	X8		Y8	Z8	

6203	62.02000000	8.23878955	1.33283332	6.06718205	8.25938447	-1.32350097	3.58702638	8.08231667	5.86357063	5.04570933	8.14609278	-2.92113027	3.39641364	9.41752058	-1.89576913	0.92786797	9.09828651	1.45859230	-2.90028085	13.72769407	-5.79454012	6.70860909	4.85042210	0.86485668	11.12781199
6204	62.03000000	8.29726038	1.29400008	5.92803989	8.11701180	-1.42647281	3.48488370	8.37205403	2.70288432	4.82366747	8.32420738	-3.39867859	3.64581824	9.63649645	-1.69764376	0.99334760	9.08487118	1.24332772	-2.96619121	13.81199197	-5.41971531	5.45890982	4.93499809	1.05654634	11.25342431
6205	62.04000000	8.45637151	1.30564217	5.89755068	7.93177257	-1.41588985	3.31726745	8.85469217	-1.42658094	4.67426057	8.33503895	-3.66590434	3.66239553	9.85235032	-1.46036285	1.07069758	9.19133874	1.34221736	-3.01149494	15.28050554	-4.16683423	5.11902080	5.30923125	0.84999176	11.05350064
6206	62.05000000	8.68419306	1.28209504	5.97253166	7.86870411	-1.59755193	3.23381164	9.37339070	-3.02285972	3.79035179	8.20410957	-3.90106805	3.48897590	10.01191497	-1.25624374	1.11874743	9.25005251	1.60292669	-2.95155672	16.71093320	-2.07401196	4.94059200	5.04823669	0.72011215	11.07177123
6207	62.06000000	8.85797756	1.27605537	5.99956028	8.05527443	-1.69888975	3.28626332	10.33718039	-2.26848140	2.41004992	8.09499264	-4.50196501	3.33500832	10.23163596	-1.01878855	1.08126913	9.20988793	2.00908244	-2.96729553	16.73102512	0.79245426	4.51162798	4.93084482	0.74544358	11.28157610
6208	62.07000000	9.05445590	1.23738359	6.06849662	8.22206660	-1.78901314	3.46555967	11.83052676	-0.47595965	0.43736897	8.20633326	-5.05317465	2.76681036	10.45690251	-0.73964564	0.93731585	9.14435487	2.37122886	-3.11978822	14.95088238	7.94288646	6.47520155	4.64122910	0.84527130	11.50863380
6209	62.08000000	9.15758854	1.18340641	6.10286554	8.51214061	-1.98034522	3.54861331	13.10603546	1.40657831	-2.34358764	7.84707776	-5.49147072	2.71268533	10.55042115	-0.69279019	0.78777515	9.13901131	2.62592789	-3.29850765	17.44751981	7.28832661	5.81026971	5.10515441	0.87981234	11.31031894
6210	62.09000000	9.14762698	1.19779470	6.11064897	8.77467278	-1.95263970	3.45527490	13.62548985	1.51290840	-1.05634741	7.50286733	-5.74124327	2.87744227	10.50166665	-0.73468582	0.81060367	8.85401001	2.60950354	-3.47069865	17.99062800	5.01166086	3.45700485	5.28691439	0.79886958	11.12765211
6211	62.10000000	9.21433703	1.24798465	6.11217168	9.02107436	-1.64834691	3.33537363	12.61197680	1.56930899	2.84290520	6.90162534	-6.51600395	2.47227246	10.23758344	-0.57932287	0.86340146	8.40121616	2.37461372	-3.40674627	17.18695497	5.10437248	1.82442684	5.30867361	0.92905913	11.10343628
6212	62.11000000	9.33015643	1.29682050	6.22152582	9.01066640	-1.33211825	3.27820212	9.23803218	1.68220602	3.06472665	6.53891704	-6.96168795	1.99364077	10.02481734	-0.51055171	0.89193199	8.12398863	2.09425017	-3.25257664	15.89497209	5.58278497	0.28726379	4.97783559	1.03746507	11.27163402
6213	62.12000000	9.33338081	1.31996715	6.25221743	8.96187681	-1.04130135	3.32192027	6.24717696	2.70744002	3.08871080	6.59844394	-6.34706259	1.93350177	9.96208220	-0.76329701	0.92052167	8.26341508	1.69815116	-3.24862591	14.89404795	6.79388186	-0.84559251	4.83610017	1.25178384	11.42747409
6214	62.13000000	9.23648386	1.35995351	6.32941554	9.02744187	-0.88404386	3.22033661	5.42327248	3.42241225	2.42841238	6.92902106	-5.54912254	2.10167366	9.98175906	-0.95171648	0.92458402	8.60191382	1.42038104	-3.49421999	14.32148569	9.23762509	-0.78325347	5.24244916	0.83447103	11.15922160
6215	62.14000000	9.05748586	1.39469919	6.40340210	8.97879976	-0.98230331	3.13541818	6.08868228	3.21729360	2.28440717	7.43823902	-4.95125700	2.21898403	10.02021083	-0.87793416	0.93414677	8.83235027	1.39413390	-3.76334864	13.21545767	10.14510667	-0.94779699	5.17575500	0.78060277	11.24829448
